# xmcd
#
# Track frame offsets:
#	150
#	12725
#	19755
#	35204
#	46689
#	56493
#	68316
#	80176
#	94696
#	106287
#	117814
#	129030
#
# Disc length: 1943 seconds
#
# Revision: 1
# Processed by: cddbd v1.5.2PL0 Copyright (c) Steve Scherf et al.
# Submitted via: audiograbber 1.83.01
#
DISCID=9207950c
DTITLE=Willie Nelson - To All The Girls I've Loved Before [CD2/5)
DYEAR=2008
DGENRE=Country
TTITLE0=To All The Girls I've Loved Before
TTITLE1=Luckenbach, Texas
TTITLE2=Whiskey River
TTITLE3=December Days
TTITLE4=I Didn't Sleep A Wink
TTITLE5=The End Of Understanding
TTITLE6=I Hope So
TTITLE7=Will You Remember Mine.
TTITLE8=Is There Something On Your Mind
TTITLE9=Some Other Time
TTITLE10=Suffering In Silence
TTITLE11=I Let My Mind Wander
EXTD=
EXTT0=
EXTT1=
EXTT2=
EXTT3=
EXTT4=
EXTT5=
EXTT6=
EXTT7=
EXTT8=
EXTT9=
EXTT10=
EXTT11=
PLAYORDER=
